<svg xmlns="http://www.w3.org/2000/svg" viewBox="0 0 500 400" width="500" height="400">
  <!-- 背景 -->
  <rect width="500" height="400" fill="#f8f9fa" rx="10" ry="10"/>
  
  <!-- 头像 -->
  <circle cx="250" cy="100" r="60" fill="#007bff"/>
  <path d="M250 170 C180 170, 180 250, 180 250 L320 250 C320 250, 320 170, 250 170 Z" fill="#007bff"/>
  
  <!-- 个人资料卡片 -->
  <rect x="100" y="210" width="300" height="150" rx="10" ry="10" fill="white" stroke="#dee2e6" stroke-width="2"/>
  
  <!-- 文本行 -->
  <rect x="130" y="240" width="140" height="15" rx="3" ry="3" fill="#007bff" opacity="0.7"/>
  <rect x="130" y="270" width="240" height="10" rx="3" ry="3" fill="#dee2e6"/>
  <rect x="130" y="290" width="240" height="10" rx="3" ry="3" fill="#dee2e6"/>
  <rect x="130" y="310" width="180" height="10" rx="3" ry="3" fill="#dee2e6"/>
  
  <!-- 按钮 -->
  <rect x="130" y="340" width="100" height="30" rx="5" ry="5" fill="#007bff"/>
  <text x="160" y="360" font-family="Arial" font-size="12" fill="white">编辑</text>
</svg>